<svg width="223" height="223" viewBox="0 0 223 223" fill="none" xmlns="http://www.w3.org/2000/svg">
<path d="M14 7C14 10.866 10.866 14 7 14C3.13401 14 0 10.866 0 7C0 3.13401 3.13401 0 7 0C10.866 0 14 3.13401 14 7Z" fill="black"/>
<path d="M14 26C14 29.866 10.866 33 7 33C3.13401 33 0 29.866 0 26C0 22.134 3.13401 19 7 19C10.866 19 14 22.134 14 26Z" fill="black"/>
<path d="M14 45C14 48.866 10.866 52 7 52C3.13401 52 0 48.866 0 45C0 41.134 3.13401 38 7 38C10.866 38 14 41.134 14 45Z" fill="black"/>
<path d="M14 64C14 67.866 10.866 71 7 71C3.13401 71 0 67.866 0 64C0 60.134 3.13401 57 7 57C10.866 57 14 60.134 14 64Z" fill="black"/>
<path d="M14 83C14 86.866 10.866 90 7 90C3.13401 90 0 86.866 0 83C0 79.134 3.13401 76 7 76C10.866 76 14 79.134 14 83Z" fill="black"/>
<path d="M14 102C14 105.866 10.866 109 7 109C3.13401 109 0 105.866 0 102C0 98.134 3.13401 95 7 95C10.866 95 14 98.134 14 102Z" fill="black"/>
<path d="M14 121C14 124.866 10.866 128 7 128C3.13401 128 0 124.866 0 121C0 117.134 3.13401 114 7 114C10.866 114 14 117.134 14 121Z" fill="black"/>
<path d="M14 140C14 143.866 10.866 147 7 147C3.13401 147 0 143.866 0 140C0 136.134 3.13401 133 7 133C10.866 133 14 136.134 14 140Z" fill="black"/>
<path d="M14 159C14 162.866 10.866 166 7 166C3.13401 166 0 162.866 0 159C0 155.134 3.13401 152 7 152C10.866 152 14 155.134 14 159Z" fill="black"/>
<path d="M14 178C14 181.866 10.866 185 7 185C3.13401 185 0 181.866 0 178C0 174.134 3.13401 171 7 171C10.866 171 14 174.134 14 178Z" fill="black"/>
<path d="M14 197C14 200.866 10.866 204 7 204C3.13401 204 0 200.866 0 197C0 193.134 3.13401 190 7 190C10.866 190 14 193.134 14 197Z" fill="black"/>
<path d="M14 216C14 219.866 10.866 223 7 223C3.13401 223 0 219.866 0 216C0 212.134 3.13401 209 7 209C10.866 209 14 212.134 14 216Z" fill="black"/>
<path d="M33 7C33 10.866 29.866 14 26 14C22.134 14 19 10.866 19 7C19 3.13401 22.134 0 26 0C29.866 0 33 3.13401 33 7Z" fill="black"/>
<path d="M33 26C33 29.866 29.866 33 26 33C22.134 33 19 29.866 19 26C19 22.134 22.134 19 26 19C29.866 19 33 22.134 33 26Z" fill="black"/>
<path d="M33 45C33 48.866 29.866 52 26 52C22.134 52 19 48.866 19 45C19 41.134 22.134 38 26 38C29.866 38 33 41.134 33 45Z" fill="black"/>
<path d="M33 64C33 67.866 29.866 71 26 71C22.134 71 19 67.866 19 64C19 60.134 22.134 57 26 57C29.866 57 33 60.134 33 64Z" fill="black"/>
<path d="M33 83C33 86.866 29.866 90 26 90C22.134 90 19 86.866 19 83C19 79.134 22.134 76 26 76C29.866 76 33 79.134 33 83Z" fill="black"/>
<path d="M33 102C33 105.866 29.866 109 26 109C22.134 109 19 105.866 19 102C19 98.134 22.134 95 26 95C29.866 95 33 98.134 33 102Z" fill="black"/>
<path d="M33 121C33 124.866 29.866 128 26 128C22.134 128 19 124.866 19 121C19 117.134 22.134 114 26 114C29.866 114 33 117.134 33 121Z" fill="black"/>
<path d="M33 140C33 143.866 29.866 147 26 147C22.134 147 19 143.866 19 140C19 136.134 22.134 133 26 133C29.866 133 33 136.134 33 140Z" fill="black"/>
<path d="M33 159C33 162.866 29.866 166 26 166C22.134 166 19 162.866 19 159C19 155.134 22.134 152 26 152C29.866 152 33 155.134 33 159Z" fill="black"/>
<path d="M33 178C33 181.866 29.866 185 26 185C22.134 185 19 181.866 19 178C19 174.134 22.134 171 26 171C29.866 171 33 174.134 33 178Z" fill="black"/>
<path d="M33 197C33 200.866 29.866 204 26 204C22.134 204 19 200.866 19 197C19 193.134 22.134 190 26 190C29.866 190 33 193.134 33 197Z" fill="black"/>
<path d="M33 216C33 219.866 29.866 223 26 223C22.134 223 19 219.866 19 216C19 212.134 22.134 209 26 209C29.866 209 33 212.134 33 216Z" fill="black"/>
<path d="M52 7C52 10.866 48.866 14 45 14C41.134 14 38 10.866 38 7C38 3.13401 41.134 0 45 0C48.866 0 52 3.13401 52 7Z" fill="black"/>
<path d="M52 26C52 29.866 48.866 33 45 33C41.134 33 38 29.866 38 26C38 22.134 41.134 19 45 19C48.866 19 52 22.134 52 26Z" fill="black"/>
<path d="M52 45C52 48.866 48.866 52 45 52C41.134 52 38 48.866 38 45C38 41.134 41.134 38 45 38C48.866 38 52 41.134 52 45Z" fill="black"/>
<path d="M52 64C52 67.866 48.866 71 45 71C41.134 71 38 67.866 38 64C38 60.134 41.134 57 45 57C48.866 57 52 60.134 52 64Z" fill="black"/>
<path d="M52 83C52 86.866 48.866 90 45 90C41.134 90 38 86.866 38 83C38 79.134 41.134 76 45 76C48.866 76 52 79.134 52 83Z" fill="black"/>
<path d="M52 102C52 105.866 48.866 109 45 109C41.134 109 38 105.866 38 102C38 98.134 41.134 95 45 95C48.866 95 52 98.134 52 102Z" fill="black"/>
<path d="M52 121C52 124.866 48.866 128 45 128C41.134 128 38 124.866 38 121C38 117.134 41.134 114 45 114C48.866 114 52 117.134 52 121Z" fill="black"/>
<path d="M52 140C52 143.866 48.866 147 45 147C41.134 147 38 143.866 38 140C38 136.134 41.134 133 45 133C48.866 133 52 136.134 52 140Z" fill="black"/>
<path d="M52 159C52 162.866 48.866 166 45 166C41.134 166 38 162.866 38 159C38 155.134 41.134 152 45 152C48.866 152 52 155.134 52 159Z" fill="black"/>
<path d="M52 178C52 181.866 48.866 185 45 185C41.134 185 38 181.866 38 178C38 174.134 41.134 171 45 171C48.866 171 52 174.134 52 178Z" fill="black"/>
<path d="M52 197C52 200.866 48.866 204 45 204C41.134 204 38 200.866 38 197C38 193.134 41.134 190 45 190C48.866 190 52 193.134 52 197Z" fill="black"/>
<path d="M52 216C52 219.866 48.866 223 45 223C41.134 223 38 219.866 38 216C38 212.134 41.134 209 45 209C48.866 209 52 212.134 52 216Z" fill="black"/>
<path d="M71 7C71 10.866 67.866 14 64 14C60.134 14 57 10.866 57 7C57 3.13401 60.134 0 64 0C67.866 0 71 3.13401 71 7Z" fill="black"/>
<path d="M71 26C71 29.866 67.866 33 64 33C60.134 33 57 29.866 57 26C57 22.134 60.134 19 64 19C67.866 19 71 22.134 71 26Z" fill="black"/>
<path d="M71 45C71 48.866 67.866 52 64 52C60.134 52 57 48.866 57 45C57 41.134 60.134 38 64 38C67.866 38 71 41.134 71 45Z" fill="black"/>
<path d="M71 64C71 67.866 67.866 71 64 71C60.134 71 57 67.866 57 64C57 60.134 60.134 57 64 57C67.866 57 71 60.134 71 64Z" fill="black"/>
<path d="M71 83C71 86.866 67.866 90 64 90C60.134 90 57 86.866 57 83C57 79.134 60.134 76 64 76C67.866 76 71 79.134 71 83Z" fill="black"/>
<path d="M71 102C71 105.866 67.866 109 64 109C60.134 109 57 105.866 57 102C57 98.134 60.134 95 64 95C67.866 95 71 98.134 71 102Z" fill="black"/>
<path d="M71 121C71 124.866 67.866 128 64 128C60.134 128 57 124.866 57 121C57 117.134 60.134 114 64 114C67.866 114 71 117.134 71 121Z" fill="black"/>
<path d="M71 140C71 143.866 67.866 147 64 147C60.134 147 57 143.866 57 140C57 136.134 60.134 133 64 133C67.866 133 71 136.134 71 140Z" fill="black"/>
<path d="M71 159C71 162.866 67.866 166 64 166C60.134 166 57 162.866 57 159C57 155.134 60.134 152 64 152C67.866 152 71 155.134 71 159Z" fill="black"/>
<path d="M71 178C71 181.866 67.866 185 64 185C60.134 185 57 181.866 57 178C57 174.134 60.134 171 64 171C67.866 171 71 174.134 71 178Z" fill="black"/>
<path d="M71 197C71 200.866 67.866 204 64 204C60.134 204 57 200.866 57 197C57 193.134 60.134 190 64 190C67.866 190 71 193.134 71 197Z" fill="black"/>
<path d="M71 216C71 219.866 67.866 223 64 223C60.134 223 57 219.866 57 216C57 212.134 60.134 209 64 209C67.866 209 71 212.134 71 216Z" fill="black"/>
<path d="M90 7C90 10.866 86.866 14 83 14C79.134 14 76 10.866 76 7C76 3.13401 79.134 0 83 0C86.866 0 90 3.13401 90 7Z" fill="black"/>
<path d="M90 26C90 29.866 86.866 33 83 33C79.134 33 76 29.866 76 26C76 22.134 79.134 19 83 19C86.866 19 90 22.134 90 26Z" fill="black"/>
<path d="M90 45C90 48.866 86.866 52 83 52C79.134 52 76 48.866 76 45C76 41.134 79.134 38 83 38C86.866 38 90 41.134 90 45Z" fill="black"/>
<path d="M90 64C90 67.866 86.866 71 83 71C79.134 71 76 67.866 76 64C76 60.134 79.134 57 83 57C86.866 57 90 60.134 90 64Z" fill="black"/>
<path d="M90 83C90 86.866 86.866 90 83 90C79.134 90 76 86.866 76 83C76 79.134 79.134 76 83 76C86.866 76 90 79.134 90 83Z" fill="black"/>
<path d="M90 102C90 105.866 86.866 109 83 109C79.134 109 76 105.866 76 102C76 98.134 79.134 95 83 95C86.866 95 90 98.134 90 102Z" fill="black"/>
<path d="M90 121C90 124.866 86.866 128 83 128C79.134 128 76 124.866 76 121C76 117.134 79.134 114 83 114C86.866 114 90 117.134 90 121Z" fill="black"/>
<path d="M90 140C90 143.866 86.866 147 83 147C79.134 147 76 143.866 76 140C76 136.134 79.134 133 83 133C86.866 133 90 136.134 90 140Z" fill="black"/>
<path d="M90 159C90 162.866 86.866 166 83 166C79.134 166 76 162.866 76 159C76 155.134 79.134 152 83 152C86.866 152 90 155.134 90 159Z" fill="black"/>
<path d="M90 178C90 181.866 86.866 185 83 185C79.134 185 76 181.866 76 178C76 174.134 79.134 171 83 171C86.866 171 90 174.134 90 178Z" fill="black"/>
<path d="M90 197C90 200.866 86.866 204 83 204C79.134 204 76 200.866 76 197C76 193.134 79.134 190 83 190C86.866 190 90 193.134 90 197Z" fill="black"/>
<path d="M90 216C90 219.866 86.866 223 83 223C79.134 223 76 219.866 76 216C76 212.134 79.134 209 83 209C86.866 209 90 212.134 90 216Z" fill="black"/>
<path d="M109 7C109 10.866 105.866 14 102 14C98.134 14 95 10.866 95 7C95 3.13401 98.134 0 102 0C105.866 0 109 3.13401 109 7Z" fill="black"/>
<path d="M109 26C109 29.866 105.866 33 102 33C98.134 33 95 29.866 95 26C95 22.134 98.134 19 102 19C105.866 19 109 22.134 109 26Z" fill="black"/>
<path d="M109 45C109 48.866 105.866 52 102 52C98.134 52 95 48.866 95 45C95 41.134 98.134 38 102 38C105.866 38 109 41.134 109 45Z" fill="black"/>
<path d="M109 64C109 67.866 105.866 71 102 71C98.134 71 95 67.866 95 64C95 60.134 98.134 57 102 57C105.866 57 109 60.134 109 64Z" fill="black"/>
<path d="M109 83C109 86.866 105.866 90 102 90C98.134 90 95 86.866 95 83C95 79.134 98.134 76 102 76C105.866 76 109 79.134 109 83Z" fill="black"/>
<path d="M109 102C109 105.866 105.866 109 102 109C98.134 109 95 105.866 95 102C95 98.134 98.134 95 102 95C105.866 95 109 98.134 109 102Z" fill="black"/>
<path d="M109 121C109 124.866 105.866 128 102 128C98.134 128 95 124.866 95 121C95 117.134 98.134 114 102 114C105.866 114 109 117.134 109 121Z" fill="black"/>
<path d="M109 140C109 143.866 105.866 147 102 147C98.134 147 95 143.866 95 140C95 136.134 98.134 133 102 133C105.866 133 109 136.134 109 140Z" fill="black"/>
<path d="M109 159C109 162.866 105.866 166 102 166C98.134 166 95 162.866 95 159C95 155.134 98.134 152 102 152C105.866 152 109 155.134 109 159Z" fill="black"/>
<path d="M109 178C109 181.866 105.866 185 102 185C98.134 185 95 181.866 95 178C95 174.134 98.134 171 102 171C105.866 171 109 174.134 109 178Z" fill="black"/>
<path d="M109 197C109 200.866 105.866 204 102 204C98.134 204 95 200.866 95 197C95 193.134 98.134 190 102 190C105.866 190 109 193.134 109 197Z" fill="black"/>
<path d="M109 216C109 219.866 105.866 223 102 223C98.134 223 95 219.866 95 216C95 212.134 98.134 209 102 209C105.866 209 109 212.134 109 216Z" fill="black"/>
<path d="M128 7C128 10.866 124.866 14 121 14C117.134 14 114 10.866 114 7C114 3.13401 117.134 0 121 0C124.866 0 128 3.13401 128 7Z" fill="black"/>
<path d="M128 26C128 29.866 124.866 33 121 33C117.134 33 114 29.866 114 26C114 22.134 117.134 19 121 19C124.866 19 128 22.134 128 26Z" fill="black"/>
<path d="M128 45C128 48.866 124.866 52 121 52C117.134 52 114 48.866 114 45C114 41.134 117.134 38 121 38C124.866 38 128 41.134 128 45Z" fill="black"/>
<path d="M128 64C128 67.866 124.866 71 121 71C117.134 71 114 67.866 114 64C114 60.134 117.134 57 121 57C124.866 57 128 60.134 128 64Z" fill="black"/>
<path d="M128 83C128 86.866 124.866 90 121 90C117.134 90 114 86.866 114 83C114 79.134 117.134 76 121 76C124.866 76 128 79.134 128 83Z" fill="black"/>
<path d="M128 102C128 105.866 124.866 109 121 109C117.134 109 114 105.866 114 102C114 98.134 117.134 95 121 95C124.866 95 128 98.134 128 102Z" fill="black"/>
<path d="M128 121C128 124.866 124.866 128 121 128C117.134 128 114 124.866 114 121C114 117.134 117.134 114 121 114C124.866 114 128 117.134 128 121Z" fill="black"/>
<path d="M128 140C128 143.866 124.866 147 121 147C117.134 147 114 143.866 114 140C114 136.134 117.134 133 121 133C124.866 133 128 136.134 128 140Z" fill="black"/>
<path d="M128 159C128 162.866 124.866 166 121 166C117.134 166 114 162.866 114 159C114 155.134 117.134 152 121 152C124.866 152 128 155.134 128 159Z" fill="black"/>
<path d="M128 178C128 181.866 124.866 185 121 185C117.134 185 114 181.866 114 178C114 174.134 117.134 171 121 171C124.866 171 128 174.134 128 178Z" fill="black"/>
<path d="M128 197C128 200.866 124.866 204 121 204C117.134 204 114 200.866 114 197C114 193.134 117.134 190 121 190C124.866 190 128 193.134 128 197Z" fill="black"/>
<path d="M128 216C128 219.866 124.866 223 121 223C117.134 223 114 219.866 114 216C114 212.134 117.134 209 121 209C124.866 209 128 212.134 128 216Z" fill="black"/>
<path d="M147 7C147 10.866 143.866 14 140 14C136.134 14 133 10.866 133 7C133 3.13401 136.134 0 140 0C143.866 0 147 3.13401 147 7Z" fill="black"/>
<path d="M147 26C147 29.866 143.866 33 140 33C136.134 33 133 29.866 133 26C133 22.134 136.134 19 140 19C143.866 19 147 22.134 147 26Z" fill="black"/>
<path d="M147 45C147 48.866 143.866 52 140 52C136.134 52 133 48.866 133 45C133 41.134 136.134 38 140 38C143.866 38 147 41.134 147 45Z" fill="black"/>
<path d="M147 64C147 67.866 143.866 71 140 71C136.134 71 133 67.866 133 64C133 60.134 136.134 57 140 57C143.866 57 147 60.134 147 64Z" fill="black"/>
<path d="M147 83C147 86.866 143.866 90 140 90C136.134 90 133 86.866 133 83C133 79.134 136.134 76 140 76C143.866 76 147 79.134 147 83Z" fill="black"/>
<path d="M147 102C147 105.866 143.866 109 140 109C136.134 109 133 105.866 133 102C133 98.134 136.134 95 140 95C143.866 95 147 98.134 147 102Z" fill="black"/>
<path d="M147 121C147 124.866 143.866 128 140 128C136.134 128 133 124.866 133 121C133 117.134 136.134 114 140 114C143.866 114 147 117.134 147 121Z" fill="black"/>
<path d="M147 140C147 143.866 143.866 147 140 147C136.134 147 133 143.866 133 140C133 136.134 136.134 133 140 133C143.866 133 147 136.134 147 140Z" fill="black"/>
<path d="M147 159C147 162.866 143.866 166 140 166C136.134 166 133 162.866 133 159C133 155.134 136.134 152 140 152C143.866 152 147 155.134 147 159Z" fill="black"/>
<path d="M147 178C147 181.866 143.866 185 140 185C136.134 185 133 181.866 133 178C133 174.134 136.134 171 140 171C143.866 171 147 174.134 147 178Z" fill="black"/>
<path d="M147 197C147 200.866 143.866 204 140 204C136.134 204 133 200.866 133 197C133 193.134 136.134 190 140 190C143.866 190 147 193.134 147 197Z" fill="black"/>
<path d="M147 216C147 219.866 143.866 223 140 223C136.134 223 133 219.866 133 216C133 212.134 136.134 209 140 209C143.866 209 147 212.134 147 216Z" fill="black"/>
<path d="M166 7C166 10.866 162.866 14 159 14C155.134 14 152 10.866 152 7C152 3.13401 155.134 0 159 0C162.866 0 166 3.13401 166 7Z" fill="black"/>
<path d="M166 26C166 29.866 162.866 33 159 33C155.134 33 152 29.866 152 26C152 22.134 155.134 19 159 19C162.866 19 166 22.134 166 26Z" fill="black"/>
<path d="M166 45C166 48.866 162.866 52 159 52C155.134 52 152 48.866 152 45C152 41.134 155.134 38 159 38C162.866 38 166 41.134 166 45Z" fill="black"/>
<path d="M166 64C166 67.866 162.866 71 159 71C155.134 71 152 67.866 152 64C152 60.134 155.134 57 159 57C162.866 57 166 60.134 166 64Z" fill="black"/>
<path d="M166 83C166 86.866 162.866 90 159 90C155.134 90 152 86.866 152 83C152 79.134 155.134 76 159 76C162.866 76 166 79.134 166 83Z" fill="black"/>
<path d="M166 102C166 105.866 162.866 109 159 109C155.134 109 152 105.866 152 102C152 98.134 155.134 95 159 95C162.866 95 166 98.134 166 102Z" fill="black"/>
<path d="M166 121C166 124.866 162.866 128 159 128C155.134 128 152 124.866 152 121C152 117.134 155.134 114 159 114C162.866 114 166 117.134 166 121Z" fill="black"/>
<path d="M166 140C166 143.866 162.866 147 159 147C155.134 147 152 143.866 152 140C152 136.134 155.134 133 159 133C162.866 133 166 136.134 166 140Z" fill="black"/>
<path d="M166 159C166 162.866 162.866 166 159 166C155.134 166 152 162.866 152 159C152 155.134 155.134 152 159 152C162.866 152 166 155.134 166 159Z" fill="black"/>
<path d="M166 178C166 181.866 162.866 185 159 185C155.134 185 152 181.866 152 178C152 174.134 155.134 171 159 171C162.866 171 166 174.134 166 178Z" fill="black"/>
<path d="M166 197C166 200.866 162.866 204 159 204C155.134 204 152 200.866 152 197C152 193.134 155.134 190 159 190C162.866 190 166 193.134 166 197Z" fill="black"/>
<path d="M166 216C166 219.866 162.866 223 159 223C155.134 223 152 219.866 152 216C152 212.134 155.134 209 159 209C162.866 209 166 212.134 166 216Z" fill="black"/>
<path d="M185 7C185 10.866 181.866 14 178 14C174.134 14 171 10.866 171 7C171 3.13401 174.134 0 178 0C181.866 0 185 3.13401 185 7Z" fill="black"/>
<path d="M185 26C185 29.866 181.866 33 178 33C174.134 33 171 29.866 171 26C171 22.134 174.134 19 178 19C181.866 19 185 22.134 185 26Z" fill="black"/>
<path d="M185 45C185 48.866 181.866 52 178 52C174.134 52 171 48.866 171 45C171 41.134 174.134 38 178 38C181.866 38 185 41.134 185 45Z" fill="black"/>
<path d="M185 64C185 67.866 181.866 71 178 71C174.134 71 171 67.866 171 64C171 60.134 174.134 57 178 57C181.866 57 185 60.134 185 64Z" fill="black"/>
<path d="M185 83C185 86.866 181.866 90 178 90C174.134 90 171 86.866 171 83C171 79.134 174.134 76 178 76C181.866 76 185 79.134 185 83Z" fill="black"/>
<path d="M185 102C185 105.866 181.866 109 178 109C174.134 109 171 105.866 171 102C171 98.134 174.134 95 178 95C181.866 95 185 98.134 185 102Z" fill="black"/>
<path d="M185 121C185 124.866 181.866 128 178 128C174.134 128 171 124.866 171 121C171 117.134 174.134 114 178 114C181.866 114 185 117.134 185 121Z" fill="black"/>
<path d="M185 140C185 143.866 181.866 147 178 147C174.134 147 171 143.866 171 140C171 136.134 174.134 133 178 133C181.866 133 185 136.134 185 140Z" fill="black"/>
<path d="M185 159C185 162.866 181.866 166 178 166C174.134 166 171 162.866 171 159C171 155.134 174.134 152 178 152C181.866 152 185 155.134 185 159Z" fill="black"/>
<path d="M185 178C185 181.866 181.866 185 178 185C174.134 185 171 181.866 171 178C171 174.134 174.134 171 178 171C181.866 171 185 174.134 185 178Z" fill="black"/>
<path d="M185 197C185 200.866 181.866 204 178 204C174.134 204 171 200.866 171 197C171 193.134 174.134 190 178 190C181.866 190 185 193.134 185 197Z" fill="black"/>
<path d="M185 216C185 219.866 181.866 223 178 223C174.134 223 171 219.866 171 216C171 212.134 174.134 209 178 209C181.866 209 185 212.134 185 216Z" fill="black"/>
<path d="M204 7C204 10.866 200.866 14 197 14C193.134 14 190 10.866 190 7C190 3.13401 193.134 0 197 0C200.866 0 204 3.13401 204 7Z" fill="black"/>
<path d="M204 26C204 29.866 200.866 33 197 33C193.134 33 190 29.866 190 26C190 22.134 193.134 19 197 19C200.866 19 204 22.134 204 26Z" fill="black"/>
<path d="M204 45C204 48.866 200.866 52 197 52C193.134 52 190 48.866 190 45C190 41.134 193.134 38 197 38C200.866 38 204 41.134 204 45Z" fill="black"/>
<path d="M204 64C204 67.866 200.866 71 197 71C193.134 71 190 67.866 190 64C190 60.134 193.134 57 197 57C200.866 57 204 60.134 204 64Z" fill="black"/>
<path d="M204 83C204 86.866 200.866 90 197 90C193.134 90 190 86.866 190 83C190 79.134 193.134 76 197 76C200.866 76 204 79.134 204 83Z" fill="black"/>
<path d="M204 102C204 105.866 200.866 109 197 109C193.134 109 190 105.866 190 102C190 98.134 193.134 95 197 95C200.866 95 204 98.134 204 102Z" fill="black"/>
<path d="M204 121C204 124.866 200.866 128 197 128C193.134 128 190 124.866 190 121C190 117.134 193.134 114 197 114C200.866 114 204 117.134 204 121Z" fill="black"/>
<path d="M204 140C204 143.866 200.866 147 197 147C193.134 147 190 143.866 190 140C190 136.134 193.134 133 197 133C200.866 133 204 136.134 204 140Z" fill="black"/>
<path d="M204 159C204 162.866 200.866 166 197 166C193.134 166 190 162.866 190 159C190 155.134 193.134 152 197 152C200.866 152 204 155.134 204 159Z" fill="black"/>
<path d="M204 178C204 181.866 200.866 185 197 185C193.134 185 190 181.866 190 178C190 174.134 193.134 171 197 171C200.866 171 204 174.134 204 178Z" fill="black"/>
<path d="M204 197C204 200.866 200.866 204 197 204C193.134 204 190 200.866 190 197C190 193.134 193.134 190 197 190C200.866 190 204 193.134 204 197Z" fill="black"/>
<path d="M204 216C204 219.866 200.866 223 197 223C193.134 223 190 219.866 190 216C190 212.134 193.134 209 197 209C200.866 209 204 212.134 204 216Z" fill="black"/>
<path d="M223 7C223 10.866 219.866 14 216 14C212.134 14 209 10.866 209 7C209 3.13401 212.134 0 216 0C219.866 0 223 3.13401 223 7Z" fill="black"/>
<path d="M223 26C223 29.866 219.866 33 216 33C212.134 33 209 29.866 209 26C209 22.134 212.134 19 216 19C219.866 19 223 22.134 223 26Z" fill="black"/>
<path d="M223 45C223 48.866 219.866 52 216 52C212.134 52 209 48.866 209 45C209 41.134 212.134 38 216 38C219.866 38 223 41.134 223 45Z" fill="black"/>
<path d="M223 64C223 67.866 219.866 71 216 71C212.134 71 209 67.866 209 64C209 60.134 212.134 57 216 57C219.866 57 223 60.134 223 64Z" fill="black"/>
<path d="M223 83C223 86.866 219.866 90 216 90C212.134 90 209 86.866 209 83C209 79.134 212.134 76 216 76C219.866 76 223 79.134 223 83Z" fill="black"/>
<path d="M223 102C223 105.866 219.866 109 216 109C212.134 109 209 105.866 209 102C209 98.134 212.134 95 216 95C219.866 95 223 98.134 223 102Z" fill="black"/>
<path d="M223 121C223 124.866 219.866 128 216 128C212.134 128 209 124.866 209 121C209 117.134 212.134 114 216 114C219.866 114 223 117.134 223 121Z" fill="black"/>
<path d="M223 140C223 143.866 219.866 147 216 147C212.134 147 209 143.866 209 140C209 136.134 212.134 133 216 133C219.866 133 223 136.134 223 140Z" fill="black"/>
<path d="M223 159C223 162.866 219.866 166 216 166C212.134 166 209 162.866 209 159C209 155.134 212.134 152 216 152C219.866 152 223 155.134 223 159Z" fill="black"/>
<path d="M223 178C223 181.866 219.866 185 216 185C212.134 185 209 181.866 209 178C209 174.134 212.134 171 216 171C219.866 171 223 174.134 223 178Z" fill="black"/>
<path d="M223 197C223 200.866 219.866 204 216 204C212.134 204 209 200.866 209 197C209 193.134 212.134 190 216 190C219.866 190 223 193.134 223 197Z" fill="black"/>
<path d="M223 216C223 219.866 219.866 223 216 223C212.134 223 209 219.866 209 216C209 212.134 212.134 209 216 209C219.866 209 223 212.134 223 216Z" fill="black"/>
</svg>
