<svg width="208" height="208" viewBox="0 0 208 208" fill="none" xmlns="http://www.w3.org/2000/svg">
<path d="M208 173V208H0V0H36V0.00354943C54.8233 0.27095 70 15.6131 70 34.5C70 53.3869 54.8233 68.729 36 68.9965V69.0035C54.8233 69.271 70 84.6131 70 103.5C70 122.387 54.8233 137.729 36 137.996V138.004C54.8233 138.271 70 153.613 70 172.5C70 172.667 69.9988 172.834 69.9965 173H70.0035C70.0012 172.834 70 172.667 70 172.5C70 153.446 85.4462 138 104.5 138C123.554 138 139 153.446 139 172.5C139 172.667 138.999 172.834 138.996 173H139.004C139.001 172.834 139 172.667 139 172.5C139 153.446 154.446 138 173.5 138C192.554 138 208 153.446 208 172.5C208 172.667 207.999 172.834 207.996 173H208Z" fill="black"/>
</svg>
