<svg width="42" height="16" viewBox="0 0 42 16" fill="none" xmlns="http://www.w3.org/2000/svg">
<path d="M8.55208 5.94097L8 0L7.44792 5.94097L4 1.07205L6.49262 6.49306L1.07161 4L5.94141 7.44878L0 8L5.9401 8.55208L1.07161 12L6.49306 9.50694L4 14.9288L7.44835 10.0599L8 16L8.55165 10.0599L12 14.9288L9.50694 9.50694L14.9284 12L10.0599 8.55208L16 8L10.0586 7.44878L14.9284 4L9.50738 6.49306L12 1.07205L8.55208 5.94097Z" fill="#DF7282"/>
<path d="M18.584 6.072H18L20.104 0.344H20.816L22.944 6.072H22.344L21.784 4.552H19.144L18.584 6.072ZM20.384 1.152L19.32 4.048H21.6L20.528 1.152C20.504 1.072 20.464 0.976 20.456 0.92C20.448 0.968 20.416 1.072 20.384 1.152Z" fill="#DF7282"/>
<path d="M23.3003 7.76V2.2H23.7803L23.8363 2.984C24.1083 2.384 24.6523 2.096 25.3003 2.096C26.4203 2.096 27.0923 2.952 27.0923 4.12C27.0923 5.288 26.4443 6.168 25.3003 6.168C24.6443 6.168 24.1242 5.888 23.8522 5.328V7.76H23.3003ZM23.8603 4.136C23.8603 5.024 24.3563 5.672 25.2043 5.672C26.0443 5.672 26.5322 5.024 26.5322 4.136C26.5322 3.24 26.0443 2.6 25.2043 2.6C24.3563 2.6 23.8603 3.24 23.8603 4.136Z" fill="#DF7282"/>
<path d="M29.2761 6.168C28.1401 6.168 27.3801 5.352 27.3801 4.136C27.3801 2.928 28.1321 2.096 29.2361 2.096C30.2841 2.096 30.9961 2.84 30.9961 3.936V4.208H27.9161C27.9561 5.152 28.4521 5.696 29.2841 5.696C29.9161 5.696 30.3241 5.424 30.4681 4.912H30.9961C30.7881 5.728 30.1881 6.168 29.2761 6.168ZM29.2361 2.568C28.5081 2.568 28.0281 3.048 27.9321 3.808H30.4441C30.4441 3.064 29.9641 2.568 29.2361 2.568Z" fill="#DF7282"/>
<path d="M33.1854 4.136C33.1854 2.952 34.0174 2.096 35.1534 2.096C36.2894 2.096 37.1214 2.952 37.1214 4.136C37.1214 5.312 36.2894 6.168 35.1534 6.168C34.0174 6.168 33.1854 5.312 33.1854 4.136ZM33.7454 4.128C33.7454 5.04 34.3214 5.672 35.1534 5.672C35.9774 5.672 36.5614 5.04 36.5614 4.128C36.5614 3.232 35.9774 2.592 35.1534 2.592C34.3214 2.592 33.7454 3.232 33.7454 4.128Z" fill="#DF7282"/>
<path d="M37.2211 2.2H37.8131V1.448C37.8131 0.576 38.2931 0.24 38.8851 0.24C39.0211 0.24 39.1811 0.248 39.3091 0.272V0.744H38.9811C38.4931 0.744 38.3651 0.992 38.3651 1.448V2.2H39.2771V2.664H38.3651V6.072H37.8131V2.664H37.2211V2.2Z" fill="#DF7282"/>
<path d="M18.24 9.832C18.24 8.872 19.008 8.24 20.16 8.24C21.192 8.24 21.872 8.816 21.96 9.776H21.376C21.312 9.128 20.872 8.76 20.152 8.76C19.344 8.76 18.816 9.176 18.816 9.824C18.816 10.328 19.112 10.648 19.712 10.8L20.696 11.04C21.592 11.256 22.056 11.768 22.056 12.544C22.056 13.536 21.288 14.168 20.104 14.168C18.992 14.168 18.24 13.584 18.168 12.648H18.76C18.792 13.248 19.32 13.64 20.104 13.64C20.944 13.64 21.48 13.232 21.48 12.576C21.48 12.064 21.192 11.728 20.576 11.584L19.608 11.344C18.712 11.128 18.24 10.616 18.24 9.832Z" fill="#DF7282"/>
<path d="M22.6518 15.76V10.2H23.1318L23.1878 10.984C23.4598 10.384 24.0038 10.096 24.6518 10.096C25.7718 10.096 26.4438 10.952 26.4438 12.12C26.4438 13.288 25.7958 14.168 24.6518 14.168C23.9958 14.168 23.4758 13.888 23.2038 13.328V15.76H22.6518ZM23.2118 12.136C23.2118 13.024 23.7078 13.672 24.5558 13.672C25.3958 13.672 25.8838 13.024 25.8838 12.136C25.8838 11.24 25.3958 10.6 24.5558 10.6C23.7078 10.6 23.2118 11.24 23.2118 12.136Z" fill="#DF7282"/>
<path d="M28.1157 14.168C27.2917 14.168 26.8037 13.704 26.8037 13.024C26.8037 12.312 27.3477 11.864 28.2517 11.792L29.5317 11.688V11.56C29.5317 10.8 29.0757 10.56 28.5077 10.56C27.8357 10.56 27.4357 10.864 27.4357 11.384H26.9317C26.9317 10.6 27.5717 10.096 28.5237 10.096C29.4197 10.096 30.0757 10.544 30.0757 11.568V14.072H29.6117L29.5397 13.392C29.2997 13.88 28.7717 14.168 28.1157 14.168ZM28.2437 13.72C29.0597 13.72 29.5317 13.152 29.5317 12.312V12.104L28.3877 12.192C27.6597 12.256 27.3637 12.576 27.3637 13.008C27.3637 13.48 27.7157 13.72 28.2437 13.72Z" fill="#DF7282"/>
<path d="M32.3834 14.168C31.2554 14.168 30.5914 13.304 30.5914 12.144C30.5914 10.976 31.2554 10.096 32.4074 10.096C33.0474 10.096 33.5594 10.376 33.8314 10.936V8.24H34.3834V14.072H33.9034L33.8474 13.28C33.5754 13.88 33.0314 14.168 32.3834 14.168ZM32.4794 13.664C33.3274 13.664 33.8234 13.024 33.8234 12.128C33.8234 11.24 33.3274 10.592 32.4794 10.592C31.6394 10.592 31.1514 11.24 31.1514 12.128C31.1514 13.024 31.6394 13.664 32.4794 13.664Z" fill="#DF7282"/>
<path d="M36.8392 14.168C35.7032 14.168 34.9432 13.352 34.9432 12.136C34.9432 10.928 35.6952 10.096 36.7992 10.096C37.8472 10.096 38.5592 10.84 38.5592 11.936V12.208H35.4792C35.5192 13.152 36.0153 13.696 36.8473 13.696C37.4793 13.696 37.8872 13.424 38.0312 12.912H38.5592C38.3512 13.728 37.7512 14.168 36.8392 14.168ZM36.7992 10.568C36.0712 10.568 35.5912 11.048 35.4952 11.808H38.0072C38.0072 11.064 37.5272 10.568 36.7992 10.568Z" fill="#DF7282"/>
<path d="M38.7938 12.984H39.3218C39.3218 13.432 39.6578 13.712 40.2018 13.712C40.8018 13.712 41.1538 13.456 41.1538 13.04C41.1538 12.72 40.9938 12.536 40.5378 12.424L39.8738 12.256C39.2018 12.088 38.8738 11.736 38.8738 11.208C38.8738 10.528 39.4418 10.096 40.2738 10.096C41.0898 10.096 41.6178 10.544 41.6418 11.264H41.1058C41.0898 10.816 40.7778 10.552 40.2578 10.552C39.7138 10.552 39.4098 10.784 39.4098 11.2C39.4098 11.496 39.6178 11.704 40.0418 11.808L40.7058 11.976C41.3778 12.144 41.6818 12.456 41.6818 13.016C41.6818 13.712 41.0898 14.168 40.2098 14.168C39.3378 14.168 38.7938 13.704 38.7938 12.984Z" fill="#DF7282"/>
</svg>
